<svg width="64" height="64" viewBox="0 0 64 64" fill="none" xmlns="http://www.w3.org/2000/svg">
<g clip-path="url(#clip0)">
<path d="M42.5674 64C44.188 64 44.1904 61.4756 42.5674 61.4756H37.4341V52.0684H50.0264C51.6475 52.0684 51.6499 49.5435 50.0264 49.5435H45.4868V45.6367H55.0986C55.7959 45.6367 56.3608 45.0713 56.3608 44.3745V14.311H57.3594C58.0566 14.311 58.6221 13.7456 58.6221 13.0488V4.84766C58.6221 4.15039 58.0566 3.58496 57.3594 3.58496H51.9458V1.26221C51.9458 0.56543 51.3809 0 50.6836 0H42.4624C41.7651 0 41.2002 0.56543 41.2002 1.26221V3.58496H37.4341V1.26221C37.4341 0.56543 36.8691 0 36.1719 0H27.9502C27.2529 0 26.688 0.56543 26.688 1.26221V3.58496H23.0181V1.26221C23.0181 0.56543 22.4531 0 21.7559 0H13.5347C12.8374 0 12.272 0.56543 12.272 1.26221V3.58496H6.76221C6.06494 3.58496 5.5 4.15039 5.5 4.84766V13.0488C5.5 13.7456 6.06494 14.311 6.76221 14.311H7.76074V44.3745C7.76074 45.0713 8.32568 45.6367 9.02295 45.6367H20.4937V49.5435H9.02295C7.40234 49.5435 7.3999 52.0684 9.02295 52.0684H28.5488V61.4751H23.4155C21.7949 61.4751 21.7925 64 23.4155 64H42.5674ZM43.7246 2.52441H49.4214V6.68213H43.7246V2.52441ZM29.2124 2.52441H34.9092V6.68213H29.2124V2.52441ZM14.7969 2.52441H20.4937V6.68213H14.7969V2.52441ZM8.02441 11.7866V6.10986H12.272V7.94434C12.272 8.64111 12.8374 9.20654 13.5342 9.20654H21.7559C22.4531 9.20654 23.0181 8.64111 23.0181 7.94434V6.10986H26.688V7.94434C26.688 8.64111 27.2529 9.20654 27.9502 9.20654H36.1714C36.8687 9.20654 37.4341 8.64111 37.4341 7.94434V6.10986H41.1997V7.94434C41.1997 8.64111 41.7651 9.20654 42.4619 9.20654H50.6836C51.3809 9.20654 51.9458 8.64111 51.9458 7.94434V6.10986H56.0972V11.7866H8.02441ZM23.0181 49.5435V45.6367H28.5488V49.5435H23.0181ZM34.9092 61.4756H31.0737V45.6367H34.9092V61.4756ZM42.9619 49.5435H37.4341V45.6367H42.9619V49.5435ZM10.2852 43.1118V14.311H53.8364V43.1118H10.2852Z" fill="#263671"/>
<path d="M17.645 22.5923C18.3423 22.5923 18.9072 22.0269 18.9072 21.3301V19.3433H45.3106V36.7905H18.9072V31.5029C18.9072 29.8823 16.3828 29.8799 16.3828 31.5029V38.0527C16.3828 38.7495 16.9478 39.3149 17.645 39.3149H46.5728C47.27 39.3149 47.835 38.7495 47.835 38.0527V18.0811C47.835 17.3838 47.27 16.8188 46.5728 16.8188H17.645C16.9478 16.8188 16.3828 17.3838 16.3828 18.0811V21.3301C16.3828 22.0269 16.9478 22.5923 17.645 22.5923Z" fill="#263671"/>
<path d="M25.4612 32.7711C25.7474 32.7423 25.9993 32.5894 26.179 32.2686C26.2552 32.1314 26.5799 30.7203 26.595 30.7203H29.4056L29.8587 32.397C30.0931 33.254 32.054 32.6339 31.8431 31.7799L29.3523 23.5987C29.0437 22.6299 26.9432 22.6295 26.6346 23.5987C25.8899 26.0582 25.1453 28.5176 24.4002 30.9771C24.2127 31.5963 23.8821 32.2134 24.6697 32.5953C24.9427 32.7271 25.2146 32.7955 25.4612 32.7711ZM27.9935 25.5167L28.9661 29.1109H27.0213L27.9935 25.5167Z" fill="#263671"/>
<path d="M34.2144 32.7856H36.5723C37.5669 32.7856 38.3618 32.5308 38.957 32.021C39.7759 31.3193 39.8281 30.2793 39.8496 29.2832C39.8691 28.3809 39.8716 27.4775 39.8569 26.5752C39.8457 25.8589 39.8486 25.1846 39.5078 24.5342C38.9394 23.4487 37.748 22.9814 36.5723 22.9814H34.2144C33.8516 22.9814 33.3086 23.1602 33.3086 23.6118V32.1553C33.3086 32.6069 33.8511 32.7856 34.2144 32.7856ZM35.3867 24.8057C36.4785 24.8057 37.7715 24.6543 37.7715 26.147V29.6206C37.7715 31.1104 36.4805 30.9619 35.3867 30.9619V24.8057Z" fill="#263671"/>
<path d="M16.4798 26.8701C16.7445 27.5049 17.4915 27.8164 18.1283 27.5527C18.763 27.29 19.0731 26.5381 18.8099 25.9043C18.5462 25.2685 17.7992 24.9585 17.1624 25.2217C16.5247 25.4849 16.2191 26.2334 16.4798 26.8701Z" fill="#263671"/>
<path d="M54.8525 49.5689C54.3368 49.6734 53.933 50.0938 53.8515 50.6133C53.7646 51.169 54.0737 51.7325 54.5878 51.9595C55.644 52.4263 56.7377 51.2837 56.2294 50.2481C55.9823 49.7437 55.4042 49.4566 54.8525 49.5689Z" fill="#263671"/>
</g>
<defs>
<clipPath id="clip0">
<rect width="64" height="64" fill="white"/>
</clipPath>
</defs>
</svg>
