<svg width="137" height="39" viewBox="0 0 137 39" fill="none" xmlns="http://www.w3.org/2000/svg">
<g clip-path="url(#clip0_2_40)">
<path d="M35.6629 0H41.897V39H35.6629V0ZM63.7161 26.559C63.7161 32.5276 58.7024 33.0034 57.2109 33.0034C53.4845 33.0034 52.8065 29.5121 52.8065 27.4061V12.48H46.5725V27.3749C46.5725 31.0721 47.732 34.1234 49.7643 36.1577C51.5597 37.9564 54.2497 38.9392 57.1641 38.9392C59.2307 38.9392 62.1576 38.2949 63.7161 36.8706V39H69.9502V12.48H63.7161V26.559ZM82.4183 3.12H76.1842V12.48H71.5087V18.72H76.1842V39H82.4183V18.72H87.0938V12.48H82.4183V3.12ZM106.726 31.0705C105.369 32.292 103.577 32.969 101.61 32.969C97.274 32.969 94.09 29.782 94.09 25.4062C94.09 21.0304 97.1727 17.9774 101.61 17.9774C103.542 17.9774 105.369 18.6217 106.761 19.8432L107.707 20.6575L111.91 16.4518L110.858 15.5017C108.385 13.2662 105.101 12.012 101.608 12.012C93.8157 12.012 88.1567 17.6405 88.1567 25.3734C88.1567 33.0736 93.9513 38.9033 101.608 38.9033C105.166 38.9033 108.484 37.649 110.927 35.3777L111.943 34.4276L107.674 30.225L106.726 31.0705ZM134.161 14.7919C132.365 12.9948 130.261 12.012 127.347 12.012C125.28 12.012 122.94 12.6563 121.381 14.079V0H115.147V39H121.381V24.3906C121.381 18.422 125.617 17.9478 127.109 17.9478C130.835 17.9478 130.732 21.4406 130.732 23.5435V39H136.966V23.5763C136.966 19.8791 136.195 16.8277 134.161 14.7919Z" fill="#17313B"/>
<path d="M101.404 20.9633C102.599 20.9633 103.746 21.4386 104.591 22.2847C105.436 23.1307 105.911 24.2782 105.911 25.4748C105.911 26.6713 105.436 27.8188 104.591 28.6649C103.746 29.511 102.599 29.9863 101.404 29.9863C100.209 29.9863 99.0622 29.511 98.217 28.6649C97.3717 27.8188 96.8969 26.6713 96.8969 25.4748C96.8969 24.2782 97.3717 23.1307 98.217 22.2847C99.0622 21.4386 100.209 20.9633 101.404 20.9633Z" fill="#FF3D2E"/>
<path d="M26.9353 29.2047C24.5648 31.6461 21.3449 32.969 17.9567 32.969C11.012 32.969 5.96239 27.509 5.96239 20.0148C5.96239 12.4862 11.012 7.02622 17.9567 7.02622C21.3122 7.02622 24.4962 8.34754 26.9026 10.7562L27.8501 11.7062L32.0176 7.53478L31.1027 6.58474C27.6475 3.02326 22.972 1.09198 17.9567 1.09198C7.72507 1.09198 0.0338135 9.2305 0.0338135 20.0475C0.0338135 30.8318 7.75936 38.9376 17.9567 38.9376C23.0063 38.9376 27.6818 36.972 31.137 33.4105L32.0519 32.4605L27.9187 28.2219L26.9353 29.2047Z" fill="#17313B"/>
</g>
<defs>
<clipPath id="clip0_2_40">
<rect width="137" height="39" fill="white"/>
</clipPath>
</defs>
</svg>
