<svg width="244" height="56" viewBox="0 0 244 56" fill="none" xmlns="http://www.w3.org/2000/svg">
<g clip-path="url(#clip0_0_3)">
<path d="M42.8 22.7H51C57.6 22.7 62.2 27.2 62.2 33V33.1C62.2 38.9 57.7 43.4 51 43.4H42.8V22.7ZM51 39.2C54.8 39.2 57.3 36.7 57.3 33.1V33C57.3 29.4 54.8 26.8 51 26.8H47.5V39.2H51Z" fill="black"/>
<path d="M66.2 22.7H82.1V26.7H70.9V30.9H80.8V34.9H70.9V39.2H82.3V43.2H66.3L66.2 22.7Z" fill="black"/>
<path d="M84.9 40.3L87.7 37.1C89.6 38.6 91.6 39.6 94 39.6C95.9 39.6 97 38.8 97 37.7V37.6C97 36.4 96.2 35.8 92.8 35C88.6 33.9 85.8 32.8 85.8 28.7V28.6C85.8 24.9 88.8 22.4 93.2 22.4C96.2 22.4 98.9 23.3 101 25L98.6 28.5C96.8 27.2 94.9 26.5 93.1 26.5C91.3 26.5 90.4 27.3 90.4 28.3V28.2C90.4 29.5 91.3 30 94.9 30.9C99.2 32 101.5 33.5 101.5 37V37.1C101.5 41.2 98.3 43.5 93.8 43.5C90.6 43.5 87.4 42.4 84.9 40.3Z" fill="black"/>
<path d="M105.7 22.7H110.3V43.3H105.7V22.7Z" fill="black"/>
<path d="M114.7 33C114.7 27.1 119.3 22.3 125.7 22.3C129.5 22.3 131.7 23.3 133.9 25.2L131 28.7C129.4 27.4 128 26.6 125.5 26.6C122.1 26.6 119.5 29.5 119.5 33V33.1C119.5 36.9 122.1 39.7 125.9 39.7C127.6 39.7 129.1 39.3 130.3 38.4V35.5H125.6V31.6H134.7V40.5C132.5 42.3 129.6 43.8 125.7 43.8C119.1 43.5 114.7 39.1 114.7 33Z" fill="black"/>
<path d="M139.1 22.7H143.4L153.2 35.3V22.7H157.7V43.3H153.8L143.6 30.2V43.3H139.1V22.7Z" fill="black"/>
<path d="M162.8 22.7H172.4C175.1 22.7 177.1 23.5 178.5 24.8C179.7 26 180.3 27.6 180.3 29.5V29.6C180.3 32.9 178.5 35 175.8 36L180.9 43.3H175.5L171 36.7H170.9H167.3V43.3H162.6V22.7H162.8ZM172.1 32.6C174.4 32.6 175.6 31.4 175.6 29.7V29.6C175.6 27.7 174.3 26.7 172 26.7H167.4V32.6H172.1Z" fill="url(#paint0_linear_0_3)"/>
<path d="M184.2 34.4V22.6H188.8V34.2C188.8 37.6 190.5 39.2 193.3 39.2C196.1 39.2 197.8 37.5 197.8 34.2V22.5H202.4V34.1C202.4 40.3 198.8 43.4 193.2 43.4C187.6 43.4 184.2 40.4 184.2 34.4Z" fill="url(#paint1_linear_0_3)"/>
<path d="M205.7 40.3L208.5 37.1C210.4 38.6 212.4 39.6 214.8 39.6C216.7 39.6 217.8 38.8 217.8 37.7V37.6C217.8 36.4 217 35.8 213.6 35C209.4 33.9 206.6 32.8 206.6 28.7V28.6C206.6 24.9 209.6 22.4 214 22.4C217 22.4 219.7 23.3 221.8 25L219.4 28.5C217.6 27.2 215.7 26.5 213.9 26.5C212.1 26.5 211.2 27.3 211.2 28.3V28.2C211.2 29.5 212.1 30 215.7 30.9C220 32 222.3 33.5 222.3 37V37.1C222.3 41.2 219.1 43.5 214.6 43.5C211.5 43.5 208.2 42.4 205.7 40.3Z" fill="url(#paint2_linear_0_3)"/>
<path d="M226.3 22.7H230.9V30.9H239.4V22.7H244V43.3H239.4V35.1H230.9V43.3H226.3V22.7Z" fill="url(#paint3_linear_0_3)"/>
<path d="M16.4 34.3C16.3 34.2 16.3 34.3 16.4 34.3L15.9 34L15.8 33.9L4 25.5C4 25.5 3.9 25.5 3.9 25.4L3.7 25.2L3.6 25.1H3.4L0 22.7L6.7 23.7C7 23.7 7.1 23.8 7.4 23.9C7.5 23.9 7.7 24 7.7 24C8 24.1 8.1 24.2 8.3 24.3C8.5 24.4 8.6 24.5 8.8 24.6C8.9 24.7 9.1 24.8 9.1 24.9C9.2 25 9.3 25 9.4 25.1C9.6 25.2 9.7 25.3 9.7 25.4C10 25.7 10.2 26 10.5 26.2L15.8 33.7L15.9 33.8L16.4 34.3Z" fill="#2AD2FF"/>
<path d="M16.4 45.9L15.9 45.1L15.8 45L0.100006 22.7L3.50001 25.1L4.10001 25.5L15.9 33.9H16L16.4 34.2C16.4 34.2 16.5 34.2 16.5 34.3L17 33.9L32.9 22.7L16.9 45.1L16.8 45.2L16.4 45.9Z" fill="url(#paint4_linear_0_3)"/>
<path d="M16.4 30.5L15.9 29.7L15.8 29.6L11.9 24.2L15.8 25H15.9L16.4 25.1L16.9 25L20.7 24.1L16.9 29.7V29.8L16.4 30.5Z" fill="#2AD2FF"/>
<path d="M33 22.6L28 23.3L26.1 23.6C24.6 23.8 23.2 24.6 22.3 25.9L17 33.5L16.9 33.6L16.4 34.3L17 33.7L17.1 33.6L16.4 34.3L29.9 24.7L33 22.6Z" fill="#2AD2FF"/>
<path d="M18.9 6.80001C18.9 11.2 11.3 13.5 11.3 18.2C11.2 19.3 11.5 20.4 12 21.4C12 21.4 9.10001 18.6 9.10001 15.6C9.10001 12.6 11.9 8.10001 11.9 8.10001C11.9 10.1 12.7 10.7 13.5 10.8H13.6C14.5 10.8 15 10.1 15 9.10001C15 8.10001 13.9 7.10001 13.9 5.10001C13.9 3.20001 16.3 0.100006 16.3 0.100006C18 2.10001 18.9 4.40001 18.9 6.80001Z" fill="#2AF4FF"/>
<path d="M16.8 22.8C14.4 22.8 12.6 20.9 12.6 18.6V18.5C12.6 13.4 19.7 12.9 19.7 6C19.9 6.3 21.8 8.9 21.8 11.7C21.8 15.2 18.5 16.1 18.5 17.8C18.5 18.5 18.8 19 19.8 19C19.9 19 20 19 20.1 18.9C22 18.1 23.3 16.3 23.4 14.2C23.4 14.3 24.4 22.8 16.8 22.8Z" fill="#2AF4FF"/>
<path d="M19.9 19C20 19 20.1 19 20.2 18.9C19.2 19.2 15.5 20.1 15.5 17.5C15.5 14.3 21 13.6 21 10.9C21 9.2 20.6 7.5 19.7 6C19.9 6.3 21.8 8.9 21.8 11.7C21.8 15.2 18.5 16.1 18.5 17.8C18.6 18.5 19 19 19.9 19Z" fill="#2AD2FF"/>
<path d="M16.9 8.60001C16.9 11.1 13.7 10.9 13.5 10.8H13.8C14.7 10.8 15.2 10.1 15.2 9.10001C15.2 8.10001 14.1 7.10001 14.1 5.10001C14.1 3.20001 16.5 0.100006 16.5 0.100006C15.7 1.40001 15.3 2.80001 15.2 4.20001C15.2 6.50001 16.9 6.70001 16.9 8.60001Z" fill="#2AD2FF"/>
<path d="M14.9 52.3L12.7 50.8H15.4L16.3 48.1L17.1 50.8H19.8L17.6 52.3L18.4 54.9L16.2 53.3L13.9 54.9L14.9 52.3Z" fill="#2AD2FF"/>
<path d="M26.4 52.3L24.2 50.8H26.9L27.8 48.1L28.6 50.8H31.3L29.1 52.3L29.9 54.9L27.7 53.3L25.4 54.9L26.4 52.3Z" fill="#2AD2FF"/>
<path d="M3.5 52.3L1.3 50.8H4L4.9 48.1L5.7 50.8H8.4L6.2 52.3L7 54.9L4.8 53.3L2.6 54.9L3.5 52.3Z" fill="#2AD2FF"/>
</g>
<defs>
<linearGradient id="paint0_linear_0_3" x1="160.66" y1="-3.25844e-06" x2="244.86" y2="-3.25844e-06" gradientUnits="userSpaceOnUse">
<stop offset="0.73" stop-color="#2AF4FF"/>
<stop offset="0.884" stop-color="#2AF4FF"/>
</linearGradient>
<linearGradient id="paint1_linear_0_3" x1="160.66" y1="-3.16151e-06" x2="244.86" y2="-3.16151e-06" gradientUnits="userSpaceOnUse">
<stop offset="0.73" stop-color="#2AF4FF"/>
<stop offset="0.884" stop-color="#2AF4FF"/>
</linearGradient>
<linearGradient id="paint2_linear_0_3" x1="160.66" y1="-5.81871e-06" x2="244.86" y2="-5.81871e-06" gradientUnits="userSpaceOnUse">
<stop offset="0.73" stop-color="#2AF4FF"/>
<stop offset="0.884" stop-color="#2AF4FF"/>
</linearGradient>
<linearGradient id="paint3_linear_0_3" x1="160.66" y1="-3.25844e-06" x2="244.86" y2="-3.25844e-06" gradientUnits="userSpaceOnUse">
<stop offset="0.73" stop-color="#2AF4FF"/>
<stop offset="0.884" stop-color="#2AF4FF"/>
</linearGradient>
<linearGradient id="paint4_linear_0_3" x1="6.13882e-06" y1="45.942" x2="6.13882e-06" y2="33.668" gradientUnits="userSpaceOnUse">
<stop offset="0.73" stop-color="#2AF4FF"/>
<stop offset="0.884" stop-color="#2AF4FF"/>
</linearGradient>
<clipPath id="clip0_0_3">
<rect width="243.9" height="55.2" fill="white"/>
</clipPath>
</defs>
</svg>
