<svg width="64" height="64" viewBox="0 0 64 64" fill="none" xmlns="http://www.w3.org/2000/svg">
<path d="M25.8889 31.4014C26.3801 31.8174 27.1179 31.794 27.5803 31.3301C28.0442 30.8677 28.0676 30.1299 27.6516 29.6387C27.6292 29.6123 27.6052 29.5874 27.5803 29.5625C27.093 29.0752 26.3015 29.0752 25.8127 29.5625C25.3254 30.0513 25.3254 30.8428 25.8127 31.3301C25.8376 31.355 25.863 31.3789 25.8889 31.4014Z" fill="#263671"/>
<path d="M0.390991 23.8408C-0.110474 24.3149 -0.132446 25.1064 0.341675 25.6079C0.816284 26.1094 1.6073 26.1313 2.10876 25.6567C5.49548 22.4531 17.6605 12 31.9999 12C46.3397 12 58.5043 22.4531 61.891 25.6567C62.3949 26.1338 63.1859 26.1069 63.6581 25.6079C64.1322 25.1064 64.1102 24.3149 63.6088 23.8408C55.2953 15.9761 43.6044 9.5 31.9999 9.5C20.3763 9.5 8.68445 15.9951 0.390991 23.8408Z" fill="#263671"/>
<path d="M63.7211 36.5371C64.0927 36.0781 64.0927 35.4219 63.7211 34.9629C63.5726 34.7798 60.0204 30.4263 54.3563 26.0137C47.9042 20.9878 40.1127 17 31.9999 17C23.8876 17 16.0961 20.9878 9.64343 26.0137C3.97937 30.4263 0.427124 34.7798 0.278687 34.9629C-0.0928955 35.4219 -0.0928955 36.0781 0.278687 36.5371C0.427124 36.7202 3.97937 41.0737 9.64343 45.4863C16.0956 50.5122 23.8871 54.5 31.9999 54.5C40.1122 54.5 47.9037 50.5122 54.3563 45.4863C60.0204 41.0737 63.5726 36.7202 63.7211 36.5371ZM52.7762 43.5479C47.8168 47.4038 40.1864 52 31.9999 52C23.8138 52 16.1835 47.4038 11.2235 43.5479C7.15759 40.3867 4.16785 37.189 2.89636 35.75C4.16833 34.311 7.15808 31.1128 11.2235 27.9521C16.1835 24.0962 23.8138 19.5 31.9999 19.5C40.1864 19.5 47.8168 24.0962 52.7762 27.9521C56.8417 31.1128 59.8319 34.311 61.1034 35.75C59.8319 37.189 56.8417 40.3872 52.7762 43.5479Z" fill="#263671"/>
<path d="M22.2775 26.0275C16.9166 31.3888 16.9166 40.1119 22.2775 45.4728C27.6388 50.8336 36.3615 50.8341 41.7228 45.4728C47.0841 40.1119 47.0841 31.3888 41.7228 26.0275C36.3615 20.6666 27.6388 20.6666 22.2775 26.0275ZM39.9547 43.7047C35.5685 48.0914 28.4313 48.0914 24.0455 43.7047C19.6588 39.3185 19.6588 32.1818 24.0455 27.795C28.4318 23.4088 35.5685 23.4088 39.9547 27.795C44.3414 32.1818 44.3414 39.3185 39.9547 43.7047Z" fill="#263671"/>
<path d="M31.078 27.0483C30.3915 27.1205 29.8935 27.7353 29.9657 28.4218C30.038 29.1083 30.6527 29.6054 31.3393 29.5341C33.1889 29.3398 35.0482 29.9594 36.4198 31.33C38.8559 33.767 38.8559 37.7328 36.4203 40.1693C33.8388 42.7489 29.9223 42.5033 27.5438 40.1425C26.3095 38.9169 25.5668 37.1596 25.7846 35.0893C25.8568 34.4027 25.3588 33.7875 24.6723 33.7152C23.9833 33.644 23.3705 34.141 23.2982 34.8275C23.0072 37.5922 24.0263 40.1723 25.8417 41.9716C29.2435 45.3441 34.7631 45.3598 38.1879 41.9374C41.5985 38.5253 41.5985 32.974 38.1874 29.5619C36.2885 27.665 33.6967 26.7729 31.078 27.0483Z" fill="#263671"/>
<path d="M34.6509 38.4019C36.1177 36.937 36.1152 34.5601 34.6519 33.0991C33.187 31.6323 30.8105 31.6353 29.3491 33.0981C27.8823 34.5635 27.8853 36.9399 29.3481 38.4009C30.811 39.8657 33.186 39.8672 34.6509 38.4019ZM31.1172 34.8657C31.6016 34.3804 32.3945 34.3765 32.8843 34.8672C33.3711 35.3535 33.3716 36.1465 32.8843 36.6328C32.8838 36.6333 32.8833 36.6338 32.8828 36.6343C32.3984 37.1196 31.6055 37.1235 31.1157 36.6328C30.6323 36.1504 30.6245 35.3574 31.1172 34.8657Z" fill="#263671"/>
</svg>
