<svg width="64" height="64" viewBox="0 0 64 64" fill="none" xmlns="http://www.w3.org/2000/svg">
<path d="M32 18.5C30.7559 18.5 29.5181 18.6719 28.3208 19.0112C27.6567 19.1992 27.271 19.8901 27.459 20.5542C27.647 21.2188 28.3384 21.6045 29.0024 21.4165C29.978 21.1401 30.9863 21 32 21C38.0654 21 43 25.9346 43 32C43 38.0654 38.0654 43 32 43C25.9346 43 21 38.0654 21 32C21 30.0718 21.5098 28.1699 22.4736 26.5C22.8188 25.9023 22.6143 25.1377 22.0161 24.7925C21.418 24.4473 20.6538 24.6523 20.3086 25.25C19.1255 27.2993 18.5 29.6333 18.5 32C18.5 39.4438 24.5562 45.5 32 45.5C39.4438 45.5 45.5 39.4438 45.5 32C45.5 24.5562 39.4438 18.5 32 18.5Z" fill="#263671"/>
<path d="M60.25 33.25C60.9404 33.25 61.5 32.6904 61.5 32V25.6118C62.9551 25.0962 64 23.7065 64 22.0771C64 20.0093 62.3179 18.3271 60.25 18.3271C58.1821 18.3271 56.5 20.0093 56.5 22.0771C56.5 23.7065 57.5449 25.0962 59 25.6118V30.75H49.5V20.0669H52.75C53.4404 20.0669 54 19.5073 54 18.8169V13.1123C55.4551 12.5962 56.5 11.2065 56.5 9.57715C56.5 7.50928 54.8179 5.82715 52.75 5.82715C50.6826 5.82715 49 7.50928 49 9.57715C49 11.2065 50.0454 12.5962 51.5 13.1123V17.5669H49.0225C48.1924 15.7593 46.3662 14.5 44.25 14.5H33.25V11.9419H38.25C38.9404 11.9419 39.5 11.3823 39.5 10.6919V7.28516C40.9551 6.76904 42 5.37939 42 3.75C42 1.68213 40.3179 0 38.25 0C36.1821 0 34.5 1.68213 34.5 3.75C34.5 5.37939 35.5449 6.76904 37 7.28516V9.44189H32C31.3096 9.44189 30.75 10.0015 30.75 10.6919V14.5H25.5264V6.53613C25.5264 5.8457 24.9663 5.28613 24.2764 5.28613H21.4453C20.9292 3.83105 19.5396 2.78613 17.9102 2.78613C15.8423 2.78613 14.1602 4.46826 14.1602 6.53613C14.1602 8.60352 15.8423 10.2861 17.9102 10.2861C19.5396 10.2861 20.9292 9.24072 21.4453 7.78613H23.0264V14.5H19.75C16.8555 14.5 14.5 16.855 14.5 19.75V30.4404H9.375V20.0708C10.8296 19.5547 11.875 18.1655 11.875 16.5356C11.875 14.4678 10.1929 12.7856 8.125 12.7856C6.05713 12.7856 4.375 14.4678 4.375 16.5356C4.375 18.165 5.41992 19.5547 6.875 20.0708V31.6904C6.875 32.3809 7.43457 32.9404 8.125 32.9404H14.5V35.75H3.75C3.06006 35.75 2.5 36.3096 2.5 37V43.3877C1.04492 43.9038 0 45.2935 0 46.9229C0 48.9907 1.68213 50.6729 3.75 50.6729C5.81787 50.6729 7.5 48.9907 7.5 46.9229C7.5 45.2935 6.45508 43.9038 5 43.3882V38.25H14.5V41.9644H12.5C11.8101 41.9644 11.25 42.5239 11.25 43.2144V52.1377C9.79541 52.6538 8.75 54.0435 8.75 55.6729C8.75 57.7407 10.4321 59.4229 12.5 59.4229C14.5679 59.4229 16.25 57.7407 16.25 55.6729C16.25 54.0435 15.2051 52.6538 13.75 52.1377V44.4644H14.5C14.502 44.4644 14.5039 44.4639 14.5054 44.4639C14.6187 47.2598 16.9272 49.5 19.75 49.5H30.75V52.0581H25.75C25.0601 52.0581 24.5 52.6177 24.5 53.3081V56.7148C23.0454 57.231 22 58.6206 22 60.25C22 62.3179 23.6826 64 25.75 64C27.8179 64 29.5 62.3179 29.5 60.25C29.5 58.6201 28.4551 57.231 27 56.7148V54.5581H32C32.6904 54.5581 33.25 53.9985 33.25 53.3081V49.5H39.7876V52.6499C39.7876 53.3403 40.3472 53.8999 41.0376 53.8999C41.7275 53.8999 42.2876 53.3403 42.2876 52.6499V49.5H44.25C47.145 49.5 49.5 47.145 49.5 44.25V42.7231H54.25C54.7661 44.1782 56.1553 45.2231 57.7852 45.2231C59.8525 45.2231 61.5352 43.541 61.5352 41.4731C61.5352 39.4058 59.8525 37.7231 57.7852 37.7231C56.1553 37.7231 54.7661 38.7686 54.25 40.2231H49.5V33.25H60.25ZM60.25 20.8271C60.9395 20.8271 61.5 21.3877 61.5 22.0771C61.5 22.7661 60.9395 23.3271 60.25 23.3271C59.5605 23.3271 59 22.7661 59 22.0771C59 21.3877 59.5605 20.8271 60.25 20.8271ZM52.75 8.32715C53.4395 8.32715 54 8.8877 54 9.57715C54 10.2661 53.4395 10.8267 52.751 10.8271C52.7505 10.8271 52.7505 10.8271 52.75 10.8271C52.75 10.8271 52.75 10.8271 52.7495 10.8271C52.0605 10.8267 51.5 10.2661 51.5 9.57715C51.5 8.88818 52.061 8.32715 52.75 8.32715ZM38.25 2.5C38.9395 2.5 39.5 3.06055 39.5 3.75C39.5 4.43945 38.9395 5 38.25 5C37.5605 5 37 4.43945 37 3.75C37 3.06055 37.5605 2.5 38.25 2.5ZM17.9102 7.78613C17.2207 7.78613 16.6602 7.2251 16.6602 6.53613C16.6602 5.84668 17.2207 5.28613 17.9102 5.28613C18.5991 5.28613 19.1597 5.84619 19.1602 6.53467V6.53613V6.53711C19.1597 7.22607 18.5991 7.78613 17.9102 7.78613ZM8.125 15.2856C8.81445 15.2856 9.375 15.8467 9.375 16.5356C9.375 17.2246 8.81445 17.7852 8.12549 17.7856H8.125C8.12451 17.7856 8.12451 17.7856 8.12451 17.7856C7.43555 17.7852 6.875 17.2246 6.875 16.5356C6.875 15.8467 7.43555 15.2856 8.125 15.2856ZM3.75 48.1729C3.06055 48.1729 2.5 47.6123 2.5 46.9229C2.5 46.2339 3.06055 45.6733 3.74951 45.6729H3.75H3.75098C4.43945 45.6733 5 46.2339 5 46.9229C5 47.6123 4.43945 48.1729 3.75 48.1729ZM12.5 56.9229C11.811 56.9229 11.25 56.3623 11.25 55.6729C11.25 54.9839 11.811 54.4229 12.5 54.4229C13.1895 54.4229 13.75 54.9839 13.75 55.6729C13.75 56.3623 13.1895 56.9229 12.5 56.9229ZM25.75 61.5C25.061 61.5 24.5 60.9395 24.5 60.25C24.5 59.561 25.0605 59.0005 25.7495 59H25.75H25.751C26.4395 59.0005 27 59.561 27 60.25C27 60.9395 26.4395 61.5 25.75 61.5ZM57.7852 40.2231C58.4741 40.2231 59.0352 40.7842 59.0352 41.4731C59.0352 42.1626 58.4741 42.7231 57.7852 42.7231C57.0962 42.7231 56.5356 42.1631 56.5352 41.4746C56.5352 41.4741 56.5352 41.4736 56.5352 41.4731C56.5352 41.4727 56.5352 41.4727 56.5352 41.4722C56.5356 40.7832 57.0962 40.2231 57.7852 40.2231ZM47 44.25C47 45.7661 45.7661 47 44.25 47H19.75C18.2339 47 17 45.7661 17 44.25V19.75C17 18.2339 18.2339 17 19.75 17H44.25C45.7661 17 47 18.2339 47 19.75V44.25Z" fill="#263671"/>
<path d="M54.7876 55.3232V52.6499C54.7876 51.9595 54.2275 51.3999 53.5376 51.3999H49.6582C48.9678 51.3999 48.4082 51.9595 48.4082 52.6499C48.4082 53.3403 48.9678 53.8999 49.6582 53.8999H52.2876V55.3232C50.8325 55.8394 49.7876 57.2285 49.7876 58.8584C49.7876 60.9258 51.4697 62.6084 53.5376 62.6084C55.605 62.6084 57.2876 60.9258 57.2876 58.8584C57.2876 57.2285 56.2422 55.8394 54.7876 55.3232ZM53.5376 60.1084C52.8481 60.1084 52.2876 59.5474 52.2876 58.8584C52.2876 58.1694 52.8481 57.6089 53.5366 57.6084H53.5376H53.5381C54.2271 57.6089 54.7876 58.1689 54.7876 58.8584C54.7876 59.5474 54.2266 60.1084 53.5376 60.1084Z" fill="#263671"/>
<path d="M46.0669 51.3999H46.0332C45.3428 51.3999 44.7832 51.9595 44.7832 52.6499C44.7832 53.3403 45.3428 53.8999 46.0332 53.8999H46.0669C46.7568 53.8999 47.3169 53.3403 47.3169 52.6499C47.3169 51.9595 46.7568 51.3999 46.0669 51.3999Z" fill="#263671"/>
<path d="M23.6489 24.2876C23.9526 24.2876 24.2573 24.1777 24.4976 23.9545L24.5078 23.9458C25.0142 23.4765 25.0444 22.6855 24.5757 22.1792C24.1065 21.6728 23.3154 21.642 22.8091 22.1113L22.7993 22.1206C22.2925 22.5893 22.2622 23.3803 22.7315 23.8867C22.9775 24.1528 23.313 24.2876 23.6489 24.2876Z" fill="#263671"/>
<path d="M31.9995 23.25C31.309 23.25 30.7495 23.8096 30.7495 24.5V25.9121C30.642 25.9453 30.5356 25.9834 30.4301 26.0269C29.5366 26.397 28.8412 27.0908 28.4731 27.98C28.1044 28.8696 28.1054 29.8516 28.4755 30.7456C28.8456 31.6392 29.5395 32.334 30.4291 32.7026L32.6132 33.6074C33.1811 33.8423 33.4516 34.4956 33.2163 35.063C33.1035 35.3354 32.8891 35.5488 32.6122 35.6636C32.3354 35.7778 32.0331 35.7788 31.7607 35.666L30.6684 35.2134C30.0307 34.9492 29.2997 35.2524 29.0351 35.8901C28.7714 36.5278 29.0742 37.2593 29.7119 37.5234L30.7499 37.9531V39.5C30.7499 40.1904 31.3095 40.75 31.9999 40.75C32.6899 40.75 33.2499 40.1904 33.2499 39.5V38.0879C33.3574 38.0547 33.4638 38.0166 33.5693 37.9731C34.4628 37.603 35.1581 36.9092 35.5263 36.0195C36.289 34.1787 35.4111 32.0601 33.5703 31.2979L31.3862 30.3931C31.1132 30.2798 30.9003 30.0654 30.7856 29.7886C30.6708 29.5122 30.6699 29.2095 30.7831 28.937C30.8959 28.6646 31.1103 28.4512 31.3871 28.3369C31.664 28.2222 31.9663 28.2212 32.2387 28.334L33.331 28.7866C33.9692 29.0508 34.7001 28.748 34.9643 28.1099C35.2285 27.4722 34.9252 26.7407 34.2875 26.4766L33.2499 26.0469V24.5C33.2495 23.8096 32.6899 23.25 31.9995 23.25Z" fill="#263671"/>
</svg>
