<svg width="236" height="50" viewBox="0 0 236 50" fill="none" xmlns="http://www.w3.org/2000/svg">
<path d="M89.2962 24.9H92.7494V37.2257C91.1636 38.5476 89.2814 39.5671 87.1027 40.2702C84.9314 40.9804 82.6416 41.332 80.2406 41.332C76.8318 41.332 73.7713 40.6218 71.0443 39.2085C68.3172 37.7952 66.1756 35.8335 64.6194 33.3234C63.0632 30.8132 62.2852 28.0078 62.2852 24.9C62.2852 21.7922 63.0632 18.9867 64.6194 16.4766C66.1756 13.9664 68.3172 12.0047 71.0443 10.5914C73.7713 9.17817 76.8466 8.46802 80.2925 8.46802C82.8862 8.46802 85.2723 8.86177 87.4436 9.64223C89.6148 10.4227 91.4526 11.5899 92.9421 13.1297L90.7042 15.3024C88.0142 12.7782 84.5906 11.5196 80.4333 11.5196C77.6766 11.5196 75.1867 12.0961 72.9636 13.2492C70.7405 14.4024 68.999 16.0055 67.7318 18.0516C66.4646 20.0977 65.8347 22.3828 65.8347 24.907C65.8347 27.4312 66.4646 29.7093 67.7318 31.7414C68.999 33.7734 70.733 35.3765 72.9414 36.5437C75.1497 37.7109 77.6247 38.2945 80.3888 38.2945C83.894 38.2945 86.8581 37.4648 89.2962 35.7984V24.9Z" fill="#DCDCDC"/>
<path d="M106.326 37.7397C103.858 35.342 102.628 31.8475 102.628 27.2632V8.74292H106.229V27.1155C106.229 30.8702 107.119 33.6686 108.905 35.5178C110.69 37.367 113.269 38.2881 116.641 38.2881C120.05 38.2881 122.644 37.367 124.429 35.5178C126.215 33.6686 127.105 30.8702 127.105 27.1155V8.74292H130.61V27.2561C130.61 31.8405 129.387 35.335 126.934 37.7327C124.481 40.1303 121.058 41.3326 116.641 41.3326C112.232 41.3397 108.793 40.1373 106.326 37.7397Z" fill="#DCDCDC"/>
<path d="M164.719 41.0584L156.931 30.6733C156.057 30.7647 155.145 30.8139 154.204 30.8139H145.059V41.0654H141.458V8.74292H154.204C158.554 8.74292 161.955 9.72729 164.423 11.696C166.891 13.6648 168.121 16.3718 168.121 19.8241C168.121 22.3483 167.446 24.4788 166.105 26.2155C164.756 27.9522 162.837 29.2108 160.34 29.9772L168.662 41.0584H164.719ZM161.844 25.7796C163.63 24.3663 164.519 22.3765 164.519 19.8241C164.519 17.2085 163.63 15.1976 161.844 13.7984C160.058 12.3992 157.479 11.696 154.108 11.696H145.059V27.903H154.108C157.487 27.903 160.066 27.1928 161.844 25.7796Z" fill="#DCDCDC"/>
<path d="M201.208 38.1053V41.0584H173.278V38.703L195.858 11.696H173.619V8.74292H200.623V11.0984L178.095 38.1053H201.208Z" fill="#DCDCDC"/>
<path d="M211.716 37.7397C209.249 35.342 208.019 31.8475 208.019 27.2632V8.74292H211.62V27.1155C211.62 30.8702 212.509 33.6686 214.295 35.5178C216.081 37.367 218.66 38.2881 222.032 38.2881C225.44 38.2881 228.034 37.367 229.82 35.5178C231.606 33.6686 232.495 30.8702 232.495 27.1155V8.74292H236V27.2561C236 31.8405 234.778 35.335 232.325 37.7327C229.872 40.1303 226.448 41.3326 222.032 41.3326C217.622 41.3397 214.184 40.1373 211.716 37.7397Z" fill="#DCDCDC"/>
<path d="M38.1267 49.6921C34.1028 49.6921 29.0934 46.3171 25.603 43.4835C24.9065 42.921 24.3655 42.4499 24.032 42.1616C23.6393 41.8171 23.3947 41.5921 23.3429 41.5429L22.8464 41.0788C22.3795 40.664 21.8756 40.2351 21.3495 39.8132C17.1626 36.4171 13.3906 34.3851 11.2564 34.3851C7.01027 34.3851 3.5496 37.1765 3.5496 40.6007C3.5496 44.0319 7.00286 46.8233 11.2564 46.8233C13.3832 46.8233 17.1551 44.7983 21.3495 41.3952L21.6014 41.1913L22.5944 42.1124C22.7723 42.2812 23.039 42.5273 23.3873 42.8296L23.9653 43.3358L23.7875 43.4765C20.2972 46.31 15.2877 49.685 11.2639 49.685C5.0465 49.6921 0 45.614 0 40.6007C0 35.5874 5.0465 31.5164 11.2564 31.5164C15.2729 31.5164 20.2898 34.8913 23.7801 37.7249C24.4692 38.2874 25.0176 38.7515 25.3511 39.0468C25.7364 39.3843 25.981 39.6093 26.0403 39.6655L26.5442 40.1366C26.974 40.5234 27.5001 40.9593 28.0411 41.4023C32.228 44.7983 35.9999 46.8304 38.1341 46.8304C42.3803 46.8304 45.8335 44.039 45.8335 40.6077C45.8335 37.1765 42.3803 34.3921 38.1341 34.3921C36.0073 34.3921 32.228 36.4171 28.0411 39.8202L27.7447 40.0593L26.7591 39.1312C26.5812 38.9624 26.3144 38.7163 25.9662 38.414L25.3881 37.9077L25.6105 37.7249C29.1082 34.8913 34.1176 31.5164 38.1341 31.5164C44.3366 31.5164 49.3905 35.5945 49.3905 40.6007C49.3905 45.6069 44.3292 49.6921 38.1267 49.6921Z" fill="#DCDCDC"/>
<path d="M24.6916 9.0587C27.2945 9.0587 29.4046 7.05659 29.4046 4.58685C29.4046 2.11711 27.2945 0.11499 24.6916 0.11499C22.0886 0.11499 19.9785 2.11711 19.9785 4.58685C19.9785 7.05659 22.0886 9.0587 24.6916 9.0587Z" fill="#DCDCDC"/>
<path opacity="0.94" d="M24.6845 32.0085C22.5651 30.328 15.5919 24.5976 14.0875 20.7445C13.8134 20.0343 13.6726 19.3031 13.68 18.5788C13.68 18.1851 13.717 17.7984 13.7985 17.4187H13.8134C14.1765 15.7312 15.3399 14.0578 17.0147 12.7078C16.6738 13.9523 16.4959 15.2882 16.4959 16.6663C16.4959 22.7343 23.8174 27.4804 24.1287 27.6843L24.6919 28.0429L25.2551 27.6843C25.5663 27.4874 32.8878 22.7624 32.8878 16.6663C32.8878 15.2882 32.7099 13.9593 32.3691 12.7078C34.0438 14.0578 35.2073 15.7312 35.5704 17.4187H35.5852C35.6667 17.7984 35.7038 18.1851 35.7038 18.5648C35.7112 19.3031 35.5704 20.0273 35.2962 20.7374C33.7993 24.5905 26.8409 30.3069 24.7067 31.9944L24.6993 31.9874L24.6845 32.0085Z" fill="#DCDCDC"/>
</svg>
