<svg width="69" height="64" viewBox="0 0 69 64" fill="none" xmlns="http://www.w3.org/2000/svg">
<path d="M10.1331 58.6667H15.4665C16.2029 58.6667 16.7998 58.0696 16.7998 57.3333V33.3333C16.7998 32.5971 16.2029 32 15.4665 32H10.1331C9.39674 32 8.7998 32.5971 8.7998 33.3333V57.3333C8.7998 58.0696 9.39674 58.6667 10.1331 58.6667ZM11.4665 34.6667H14.1331V40H11.4665V34.6667ZM11.4665 42.6667H14.1331V48H11.4665V42.6667ZM11.4665 50.6667H14.1331V56H11.4665V50.6667Z" fill="#263671"/>
<path d="M66.9333 21.3333H48.8V8H50.1333C50.8696 8 51.4667 7.40293 51.4667 6.66667V1.33333C51.4667 0.597067 50.8696 0 50.1333 0H40.1333C39.3971 0 38.8 0.597067 38.8 1.33333C38.8 2.0696 39.3971 2.66667 40.1333 2.66667H48.8V5.33333H19.4667V2.66667H28.1333C28.8697 2.66667 29.4667 2.0696 29.4667 1.33333C29.4667 0.597067 28.8697 0 28.1333 0H18.1333C17.3969 0 16.8 0.597067 16.8 1.33333V6.66667C16.8 7.40293 17.3969 8 18.1333 8H19.4667V21.3333H1.33333C0.596933 21.3333 0 21.9304 0 22.6667V28C0 28.7363 0.596933 29.3333 1.33333 29.3333H3.46667V62.6667C3.46667 63.4029 4.0636 64 4.8 64H63.4667C64.2029 64 64.8 63.4029 64.8 62.6667V29.3333H66.9333C67.6696 29.3333 68.2667 28.7363 68.2667 28V22.6667C68.2667 21.9304 67.6696 21.3333 66.9333 21.3333ZM19.4667 61.3333H6.13333V29.3333H19.4667V61.3333ZM19.4667 26.6667H2.66667V24H19.4667V26.6667ZM32.8 61.3333H27.4667V56H32.8V61.3333ZM40.8 61.3333H35.4667V56H40.8V61.3333ZM46.1333 61.3333H43.4667V54.6667C43.4667 53.9304 42.8696 53.3333 42.1333 53.3333H26.1333C25.3969 53.3333 24.8 53.9304 24.8 54.6667V61.3333H22.1333V8H46.1333V61.3333ZM62.1333 61.3333H48.8V29.3333H62.1333V61.3333ZM65.6 26.6667H48.8V24H65.6V26.6667Z" fill="#263671"/>
<path d="M52.8001 58.6667H58.1335C58.8697 58.6667 59.4668 58.0696 59.4668 57.3333V33.3333C59.4668 32.5971 58.8697 32 58.1335 32H52.8001C52.0639 32 51.4668 32.5971 51.4668 33.3333V57.3333C51.4668 58.0696 52.0639 58.6667 52.8001 58.6667ZM54.1335 34.6667H56.8001V40H54.1335V34.6667ZM54.1335 42.6667H56.8001V48H54.1335V42.6667ZM54.1335 50.6667H56.8001V56H54.1335V50.6667Z" fill="#263671"/>
<path d="M26.1331 50.6667H42.1331C42.8694 50.6667 43.4665 50.0696 43.4665 49.3333V33.3333C43.4665 32.5971 42.8694 32 42.1331 32H26.1331C25.3967 32 24.7998 32.5971 24.7998 33.3333V49.3333C24.7998 50.0696 25.3967 50.6667 26.1331 50.6667ZM38.1331 34.6667H40.7998V40H38.1331V34.6667ZM38.1331 42.6667H40.7998V48H38.1331V42.6667ZM32.7998 34.6667H35.4665V40H32.7998V34.6667ZM32.7998 42.6667H35.4665V48H32.7998V42.6667ZM27.4665 34.6667H30.1331V40H27.4665V34.6667ZM27.4665 42.6667H30.1331V48H27.4665V42.6667Z" fill="#263671"/>
<path d="M26.1331 29.3334H42.1331C42.8694 29.3334 43.4665 28.7363 43.4665 28.0001V12.0001C43.4665 11.2638 42.8694 10.6667 42.1331 10.6667H26.1331C25.3967 10.6667 24.7998 11.2638 24.7998 12.0001V28.0001C24.7998 28.7363 25.3967 29.3334 26.1331 29.3334ZM27.4665 13.3334H40.7998V26.6667H27.4665V13.3334Z" fill="#263671"/>
<path d="M36.8005 18.6667H35.4671V17.3333C35.4671 16.5971 34.8701 16 34.1338 16C33.3975 16 32.8005 16.5971 32.8005 17.3333V18.6667H31.4671C30.7307 18.6667 30.1338 19.2637 30.1338 20C30.1338 20.7363 30.7307 21.3333 31.4671 21.3333H32.8005V22.6667C32.8005 23.4029 33.3975 24 34.1338 24C34.8701 24 35.4671 23.4029 35.4671 22.6667V21.3333H36.8005C37.5367 21.3333 38.1338 20.7363 38.1338 20C38.1338 19.2637 37.5367 18.6667 36.8005 18.6667Z" fill="#263671"/>
<path d="M34.1331 2.66667C34.8695 2.66667 35.4665 2.06971 35.4665 1.33333C35.4665 0.596954 34.8695 0 34.1331 0C33.3968 0 32.7998 0.596954 32.7998 1.33333C32.7998 2.06971 33.3968 2.66667 34.1331 2.66667Z" fill="#263671"/>
</svg>
