<svg width="58" height="64" viewBox="0 0 58 64" fill="none" xmlns="http://www.w3.org/2000/svg">
<path d="M28.75 29.29C28.0596 29.29 27.5 29.85 27.5 30.5404C27.5 31.2308 28.0596 31.7904 28.75 31.7904C29.4404 31.7904 30 31.2308 30 30.5404V30.5395C30 29.8492 29.4404 29.29 28.75 29.29Z" fill="#263671"/>
<path d="M22.5627 5.06287C24.2153 3.41012 26.4126 2.5 28.7498 2.5C31.0871 2.5 33.2843 3.41012 34.9369 5.06287C35.1811 5.307 35.5009 5.429 35.8208 5.429C36.1407 5.429 36.4607 5.307 36.7047 5.06287C37.1928 4.57475 37.1928 3.78325 36.7047 3.295C34.5798 1.17025 31.7547 0 28.7498 0C25.7449 0 22.9197 1.17025 20.7948 3.295C20.3067 3.78312 20.3067 4.57462 20.7948 5.06287C21.2829 5.55112 22.0744 5.551 22.5627 5.06287Z" fill="#263671"/>
<path d="M32.2848 8.9645C32.6047 8.9645 32.9247 8.8425 33.1687 8.59838C33.6568 8.11025 33.6568 7.31875 33.1687 6.8305C31.9882 5.65 30.4187 4.99988 28.7493 4.99988C27.08 4.99988 25.5103 5.65 24.33 6.8305C23.8418 7.31863 23.8418 8.11013 24.33 8.59838C24.8181 9.08663 25.6096 9.0865 26.0978 8.59838C26.8061 7.89 27.7478 7.5 28.7495 7.5C29.7511 7.5 30.6928 7.89013 31.4011 8.59838C31.645 8.8425 31.965 8.9645 32.2848 8.9645Z" fill="#263671"/>
<path d="M27.5 11.25C27.5 11.9404 28.0596 12.5 28.75 12.5H28.751C29.4414 12.5 30.0005 11.9404 30.0005 11.25C30.0005 10.5596 29.4404 10 28.75 10C28.0596 10 27.5 10.5596 27.5 11.25Z" fill="#263671"/>
<path d="M54.3748 55.4329V41.7218C54.3748 41.0315 53.8151 40.4718 53.1248 40.4718H43.6132V36.9499H53.1248C53.8151 36.9499 54.3748 36.3902 54.3748 35.6999V16.0672C56.1797 15.528 57.4997 13.8532 57.4997 11.8752C57.4997 9.46286 55.5371 7.50024 53.1248 7.50024C50.7124 7.50024 48.7498 9.46286 48.7498 11.8752C48.7498 13.8532 50.0698 15.528 51.8748 16.0672V34.4499H43.6132V32.2763C43.9023 32.2863 44.1945 32.2635 44.4853 32.2054C45.4674 32.0089 46.3144 31.4418 46.87 30.6084C48.0169 28.888 47.5504 26.5553 45.83 25.4083L30.886 15.4456C29.6129 14.5636 27.9597 14.5486 26.6699 15.4083L23.8501 17.2882C23.2758 17.6711 23.1205 18.4472 23.5035 19.0216C23.8865 19.5959 24.6625 19.7512 25.2369 19.3682L28.0566 17.4883C28.4881 17.2007 29.0416 17.2066 29.4667 17.5036C29.4742 17.5088 29.4816 17.5139 29.4892 17.5189L44.4433 27.4883C45.0167 27.8706 45.1723 28.6481 44.7899 29.2216C44.6048 29.4994 44.3224 29.6885 43.9951 29.754C43.6677 29.8193 43.3344 29.7535 43.0566 29.5684L29.4434 20.4929C29.0236 20.2131 28.4765 20.2131 28.0566 20.4929L14.4433 29.5684C14.1656 29.7536 13.8323 29.8194 13.5049 29.754C13.1776 29.6885 12.8953 29.4994 12.7101 29.2216C12.5249 28.9439 12.4589 28.6106 12.5244 28.2833C12.5899 27.9559 12.7791 27.6736 13.0568 27.4884L15.8759 25.6089C16.4503 25.226 16.6056 24.4499 16.2226 23.8755C15.8397 23.3012 15.0636 23.1458 14.4892 23.5289L11.6701 25.4084C10.8367 25.964 10.2695 26.8109 10.0731 27.7931C9.87671 28.7753 10.0745 29.7751 10.6301 30.6085C11.1857 31.4419 12.0326 32.0091 13.0148 32.2055C13.2623 32.255 13.5111 32.2795 13.7579 32.2795C13.8011 32.2795 13.8438 32.2763 13.8868 32.2748V34.4499H5.62497V16.0672C7.42997 15.528 8.74996 13.8532 8.74996 11.8752C8.74996 9.46286 6.78734 7.50024 4.37498 7.50024C1.96262 7.50024 0 9.46286 0 11.8752C0 13.8532 1.31987 15.528 3.12499 16.0672V35.6999C3.12499 36.3902 3.68461 36.9499 4.37498 36.9499H13.8866V40.4718H4.37498C3.68461 40.4718 3.12499 41.0315 3.12499 41.7218V55.4329C1.31999 55.9721 0 57.6469 0 59.625C0 62.0374 1.96262 64 4.37498 64C6.78734 64 8.74996 62.0374 8.74996 59.625C8.74996 57.647 7.42997 55.9721 5.62497 55.4329V42.9718H13.8866V46.7218H12.6366C11.9462 46.7218 11.3866 47.2814 11.3866 47.9718C11.3866 48.6622 11.9462 49.2218 12.6366 49.2218H44.8632C45.5535 49.2218 46.1132 48.6622 46.1132 47.9718C46.1132 47.2814 45.5535 46.7218 44.8632 46.7218H43.6132V42.9718H51.8748V55.4329C50.0698 55.9721 48.7498 57.6469 48.7498 59.625C48.7498 62.0374 50.7124 64 53.1248 64C55.5371 64 57.4997 62.0374 57.4997 59.625C57.4997 57.647 56.1797 55.9721 54.3748 55.4329ZM51.2498 11.8752C51.2498 10.8414 52.0909 10.0002 53.1248 10.0002C54.1586 10.0002 54.9998 10.8414 54.9998 11.8752C54.9998 12.9091 54.1586 13.7502 53.1248 13.7502C52.0909 13.7502 51.2498 12.909 51.2498 11.8752ZM2.49999 11.8752C2.49999 10.8414 3.34111 10.0002 4.37498 10.0002C5.40885 10.0002 6.24997 10.8414 6.24997 11.8752C6.24997 12.9091 5.40885 13.7502 4.37498 13.7502C3.34111 13.7501 2.49999 12.909 2.49999 11.8752ZM6.24997 59.625C6.24997 60.6589 5.40885 61.5 4.37498 61.5C3.34111 61.5 2.49999 60.6589 2.49999 59.625C2.49999 58.5911 3.34111 57.75 4.37498 57.75C5.40885 57.75 6.24997 58.5911 6.24997 59.625ZM31.2499 46.7218H26.2499V37.9718H31.2499V46.7218ZM41.1131 46.7218H33.7498V36.7219C33.7498 36.0315 33.1902 35.4719 32.4999 35.4719H24.9999C24.3095 35.4719 23.7499 36.0315 23.7499 36.7219V46.7218H16.3867V31.2774L28.75 23.0353L41.1132 31.2774V46.7218C41.1131 46.7217 41.1131 46.7217 41.1131 46.7218ZM53.1248 61.5C52.0909 61.5 51.2498 60.6589 51.2498 59.625C51.2498 58.5911 52.0909 57.75 53.1248 57.75C54.1586 57.75 54.9998 58.5911 54.9998 59.625C54.9998 60.6589 54.1586 61.5 53.1248 61.5Z" fill="#263671"/>
<path d="M19.8627 22.6984C20.5531 22.6984 21.1127 22.1387 21.1127 21.4484C21.1127 20.758 20.5531 20.1984 19.8627 20.1984H19.8618C19.1714 20.1984 18.6123 20.758 18.6123 21.4484C18.6123 22.1387 19.1723 22.6984 19.8627 22.6984Z" fill="#263671"/>
</svg>
