<svg width="64" height="64" viewBox="0 0 64 64" fill="none" xmlns="http://www.w3.org/2000/svg">
<g clip-path="url(#clip0)">
<path d="M2.5 10.0002C2.5 7.03296 3.67712 4.24209 5.81437 2.14184C6.30675 1.65796 6.31375 0.866589 5.82987 0.374089C5.346 -0.118286 4.5545 -0.125161 4.06213 0.358589C1.44263 2.93284 0 6.35696 0 10.0002C0 13.6435 1.44263 17.0676 4.06225 19.6418C4.30562 19.881 4.622 20.0002 4.93825 20.0002C5.26175 20.0002 5.58525 19.8753 5.82987 19.6263C6.31375 19.134 6.30675 18.3425 5.81437 17.8586C3.67712 15.7585 2.5 12.9675 2.5 10.0002Z" fill="#263671"/>
<path d="M9.39161 3.8738C8.90786 3.38155 8.11648 3.37455 7.62386 3.8583C5.95586 5.49767 5.03711 7.6788 5.03711 9.99992C5.03711 12.321 5.95586 14.5023 7.62386 16.1415C7.86736 16.3807 8.18373 16.4999 8.50011 16.4999C8.82361 16.4999 9.14711 16.375 9.39173 16.126C9.87561 15.6338 9.86873 14.8422 9.37636 14.3583C8.19036 13.1929 7.53711 11.645 7.53711 9.99992C7.53711 8.3548 8.19023 6.80692 9.37623 5.64155C9.86861 5.15767 9.87548 4.36617 9.39161 3.8738Z" fill="#263671"/>
<path d="M59.9377 0.358391C59.4453 -0.125359 58.6538 -0.118609 58.1699 0.373891C57.686 0.866266 57.693 1.65777 58.1854 2.14164C60.3228 4.24189 61.4998 7.03277 61.4998 10C61.4998 12.9673 60.3227 15.7581 58.1854 17.8584C57.693 18.3423 57.686 19.1336 58.1699 19.6261C58.4147 19.8751 58.738 20 59.0615 20C59.3778 20 59.6943 19.8808 59.9375 19.6416C62.5572 17.0674 63.9998 13.6434 63.9998 10C63.9998 6.35664 62.5572 2.93264 59.9377 0.358391Z" fill="#263671"/>
<path d="M56.3762 3.85835C55.8838 3.3746 55.0923 3.38147 54.6085 3.87384C54.1246 4.36609 54.1315 5.15772 54.6238 5.64159C55.8098 6.80697 56.463 8.35485 56.463 9.99997C56.463 11.6451 55.8098 13.193 54.6238 14.3583C54.1315 14.8422 54.1246 15.6337 54.6085 16.1261C54.8532 16.3751 55.1765 16.5 55.5001 16.5C55.8163 16.5 56.1328 16.3807 56.3762 16.1416C58.0443 14.5023 58.9629 12.3212 58.9629 9.99997C58.9629 7.67872 58.0443 5.49772 56.3762 3.85835Z" fill="#263671"/>
<path d="M50.1471 6.2505H48.8971V1.7505C48.8971 1.06025 48.3375 0.5005 47.6471 0.5005H45.1471C43.0794 0.5005 41.3971 2.18275 41.3971 4.2505V8.74987H38.1281C38.1281 8.74987 37.6226 1.16675 37.6223 1.16275C37.601 0.857125 37.4633 0.561625 37.2424 0.34925C37.0096 0.125125 36.6939 0.001 36.3716 0C36.3716 0 27.636 0 27.6289 0C26.9815 0 26.4215 0.521625 26.378 1.16862L25.8725 8.74987H22.6035V4.24925C22.6035 2.1815 20.9213 0.49925 18.8535 0.49925H16.3535C15.6631 0.49925 15.1035 1.059 15.1035 1.74925V6.24925H13.8535C11.7858 6.24925 10.1035 7.9315 10.1035 9.99925C10.1035 12.067 11.7858 13.7492 13.8535 13.7492H15.1035V18.2492C15.1035 18.9395 15.6631 19.4992 16.3535 19.4992H18.8535C20.9213 19.4992 22.6035 17.817 22.6035 15.7492V11.2499H25.7059L25.1298 19.8926L20.8716 61.4999H20.0003C19.3099 61.4999 18.7503 62.0596 18.7503 62.7499C18.7503 63.4401 19.3099 63.9999 20.0003 63.9999H27.5003C28.1906 63.9999 28.7503 63.4401 28.7503 62.7499C28.7503 62.0596 28.1906 61.4999 27.5003 61.4999H26.5244L32.0003 58.224L37.476 61.4999H36.5003C35.8099 61.4999 35.2503 62.0596 35.2503 62.7499C35.2503 63.4401 35.8099 63.9999 36.5003 63.9999H44.0003C44.6906 63.9999 45.2503 63.4401 45.2503 62.7499C45.2503 62.0596 44.6906 61.4999 44.0003 61.4999H43.1289L38.8711 19.8961L38.2948 11.2499H41.3971V15.7505C41.3971 17.8182 43.0794 19.5005 45.1471 19.5005H47.6471C48.3375 19.5005 48.8971 18.9407 48.8971 18.2505V13.7505H50.1471C52.2149 13.7505 53.8971 12.0682 53.8971 10.0005C53.8971 7.93275 52.2149 6.2505 50.1471 6.2505ZM13.8534 11.2492C13.1641 11.2492 12.6034 10.6885 12.6034 9.99925C12.6034 9.31 13.1641 8.74925 13.8534 8.74925H15.1034V11.2492H13.8534ZM20.1034 15.7492C20.1034 16.4385 19.5426 16.9992 18.8534 16.9992H17.6034V2.99925H18.8534C19.5426 2.99925 20.1034 3.56 20.1034 4.24925V15.7492ZM36.0169 28.2696L32.0003 30.2869L27.9836 28.2696L32.0003 25.46L36.0169 28.2696ZM34.181 23.9346L36.5983 22.2437L36.971 25.8864L34.181 23.9346ZM27.0293 25.8862L27.402 22.2436L29.8193 23.9345L27.0293 25.8862ZM26.5716 30.3581L29.215 31.6856L26.2853 33.157L26.5716 30.3581ZM32.0003 33.0845L36.3641 35.2761L32.0003 37.4659L27.6364 35.2761L32.0003 33.0845ZM34.7854 31.6856L37.4288 30.3581L37.7153 33.1571L34.7854 31.6856ZM32.0003 22.4091L28.45 19.9257L31.965 17.0725L35.5405 19.9329L32.0003 22.4091ZM33.9513 15.46L35.961 13.8285L36.1891 17.2502L33.9513 15.46ZM31.9535 13.8617L28.824 11.358L32.0328 7.84987L35.1766 11.2452L31.9535 13.8617ZM29.9671 15.4741L27.8133 17.2226L28.033 13.9267L29.9671 15.4741ZM25.8728 37.1882L29.2131 38.8642L25.5111 40.7219L25.8728 37.1882ZM32.0003 40.2629L37.2203 42.8821L32.0003 45.5784L26.7803 42.8821L32.0003 40.2629ZM34.7874 38.8642L38.1276 37.1882L38.4893 40.7219L34.7874 38.8642ZM35.3228 4.25287L35.572 7.99262L33.7259 5.99862L35.3228 4.25287ZM33.538 2.49987L32.0215 4.158L30.4863 2.49987H33.538ZM28.6795 4.22825L30.3284 6.009L28.4218 8.09362L28.6795 4.22825ZM25.0914 44.8235L29.2765 46.9852L24.6243 49.3882L25.0914 44.8235ZM23.4975 60.3975L24.1978 53.5561L29.5655 56.7674L23.4975 60.3975ZM25.7939 51.5977L32.0003 48.3921L38.2066 51.5979L32.0003 55.3107L25.7939 51.5977ZM40.503 60.3975L34.4351 56.7674L39.8029 53.5561L40.503 60.3975ZM39.3763 49.3882L34.724 46.9852L38.909 44.8235L39.3763 49.3882ZM46.3971 17.0005H45.1471C44.4579 17.0005 43.8971 16.4397 43.8971 15.7505V4.2505C43.8971 3.56125 44.4579 3.0005 45.1471 3.0005H46.3971V17.0005ZM50.1471 11.2505H48.8971V8.7505H50.1471C50.8364 8.7505 51.3971 9.31125 51.3971 10.0005C51.3971 10.6897 50.8364 11.2505 50.1471 11.2505Z" fill="#263671"/>
</g>
<defs>
<clipPath id="clip0">
<rect width="64" height="64" fill="white"/>
</clipPath>
</defs>
</svg>
